<?xml version="1.0" encoding="UTF-8" standalone="no"?>
<svg
   ffdec:objectType="frame"
   height="60.549999"
   width="67.099998"
   version="1.1"
   id="svg8"
   sodipodi:docname="718.svg"
   xmlns:inkscape="http://www.inkscape.org/namespaces/inkscape"
   xmlns:sodipodi="http://sodipodi.sourceforge.net/DTD/sodipodi-0.dtd"
   xmlns:xlink="http://www.w3.org/1999/xlink"
   xmlns="http://www.w3.org/2000/svg"
   xmlns:svg="http://www.w3.org/2000/svg"
   xmlns:ffdec="https://www.free-decompiler.com/flash">
  <sodipodi:namedview
     id="namedview8"
     pagecolor="#ffffff"
     bordercolor="#000000"
     borderopacity="0.25"
     inkscape:showpageshadow="2"
     inkscape:pageopacity="0.0"
     inkscape:pagecheckerboard="0"
     inkscape:deskcolor="#d1d1d1"
     fit-margin-top="5"
     fit-margin-left="5"
     fit-margin-right="5"
     fit-margin-bottom="5" />
  <g
     transform="translate(1.5,1.5)"
     id="g3">
    <use
       ffdec:characterId="516"
       height="57.549999"
       width="64.099998"
       xlink:href="#shape0"
       id="use1" />
    <use
       ffdec:characterId="1208"
       height="59.400002"
       transform="translate(-1.5,-0.95)"
       width="65.599998"
       xlink:href="#shape1"
       id="use2" />
    <use
       ffdec:characterId="518"
       height="60.549999"
       transform="translate(-1.5,-1.5)"
       width="67.099998"
       xlink:href="#shape2"
       id="use3" />
  </g>
  <defs
     id="defs8">
    <g
       id="shape0">
      <path
         d="M 53.6,0 H 64.1 V 57.55 H 53.6 28.25 0 V 0 H 28.25 53.6 V 57.55 0 M 28.25,0 V 57.55 0"
         fill="#ffffff"
         fill-rule="evenodd"
         stroke="none"
         id="path3" />
    </g>
    <g
       id="shape1"
       transform="translate(1.5,0.95)">
      <path
         d="m 0,15.8 q 0.1,0.75 0.5,1.2 v 0.35 l -0.1,0.3 q -0.25,1.1 0.4,2 0.8,1 1.65,0.1 Q 3.1,19.1 3.2,18.15 L 3.15,17.1 4.3,15.8 6.8,15.65 6.9,15.8 7.05,16.05 7.1,16.2 7.15,16.3 7.1,17 l 0.1,0.75 -0.15,0.1 q -0.8,0.65 -1,1.65 L 5.95,20.2 5.2,20.7 4.35,20.2 3.6,20.25 3.55,20.3 2.75,20 q -0.8,0.05 -1.3,0.75 -0.35,0.45 -0.3,1 0,3 3.1,3.25 L 5.9,24.85 6.2,26.05 5.65,27 q -0.7,1.6 -0.15,3.25 0.4,1.1 1.45,1.65 l 3.35,0.2 q 3.15,-1.15 2.9,-4.5 l -0.4,-1.65 q 0.85,-0.5 1.15,-1.45 L 14.4,23 Q 14.95,21.45 14.7,19.85 14.45,18 13.35,17 14,15.9 13.9,14.55 13.85,13.4 13.25,12.45 12.1,10.6 10.15,10.25 10.05,9.1 9.35,8.45 q 0.3,-1 0.1,-2.3 L 9.2,4.9 Q 8.25,1.35 4.65,0.8 L 4.45,0.85 Q 3.6,0.5 2.65,0.3 0.8,0.4 0.3,2.2 0,3.25 0.45,4.25 0.35,5 0.75,5.65 1.35,6.6 2.45,6.75 L 3.3,7.5 3.95,8.35 2.95,9.5 q -0.6,0.75 -0.7,1.55 -1.2,0.95 -1.9,2.5 L 0,14.75 V 0 H 64.1 V 57.55 H 0 V 15.8 m 37.45,6.25 Q 35.5,22.75 34,24.2 l -0.35,0.3 -3.35,3.2 v 0.05 0.1 0.1 l 0.05,0.05 0.05,0.05 0.15,0.1 0.3,0.05 Q 32,27.5 33.3,27 q 2.3,-0.85 4.4,-2.1 l 0.8,-0.85 q 0.8,-1.65 -1.05,-2 M 25.9,20.7 h -0.1 l -0.1,0.05 -2.95,3.75 -0.85,1.4 q -0.45,1 0.7,1.2 0.3,0.05 0.5,-0.25 l 2.3,-4.05 0.2,-0.3 0.05,-0.2 0.35,-0.35 0.45,-0.8 -0.05,-0.05 v -0.15 l -0.1,-0.1 -0.15,-0.1 -0.25,-0.05 m 9.05,17.35 q -0.2,0 -0.45,0.15 -0.45,0.2 -0.4,0.65 0,1.55 1.65,2.2 l 0.3,0.3 q 2.1,1.5 4.5,2.3 l 0.05,-0.05 0.05,-0.05 0.05,-0.05 0.05,-0.1 v -0.15 l -0.05,-0.05 -0.1,-0.1 -0.2,-0.15 -1.35,-1.4 -1.6,-1.7 q -1.1,-1.2 -2.5,-1.8 m -2.2,-4.9 Q 33.4,32.45 33.2,32 33.35,31 32,30.8 l -1.85,0.45 -0.7,-2.4 -0.1,-0.7 Q 29.25,27 28.5,26.4 l 5.7,-3.6 q 2.55,-1.75 5.2,-3.15 1.65,-0.9 1.9,-2.55 L 41.25,17.05 41.2,16.95 V 16.9 L 40.95,16.8 40.3,16.65 q -2.45,0.85 -4.65,2.45 l -6,4.45 -7.4,4.85 -0.4,0.2 q -0.75,0.5 -1.35,1.15 l -0.05,0.05 v 0.1 l -0.3,0.25 -0.1,0.05 -0.1,0.05 V 30.4 L 20,30.55 h 0.1 l 7.05,-3.4 0.45,-0.2 -0.1,0.4 -0.3,3.1 L 27,31.3 23.5,30 v 0.05 h -0.15 l -0.1,0.05 -0.2,0.15 L 23,30.4 q 0.55,1.3 1.6,2.5 l 0.75,0.95 0.1,0.15 q -1.2,0.8 -2.3,1.75 -1.25,1.1 -1.1,2.6 0.05,0.4 0.45,0.45 l 0.8,0.1 0.25,0.35 q 0.25,0.3 0.65,0.25 l 1.8,-0.55 0.05,0.5 q 0.25,1 0.15,2.05 -0.15,1.35 0.45,2.45 L 26.8,44 h 0.1 v -0.05 l 0.45,-1 q -0.05,-0.9 0.2,-1.75 L 27.65,40.95 28,39.6 q 0.25,-1.2 -0.45,-1.75 l 0.7,-0.6 1.85,3.75 q 0.45,1 1.55,1 l 0.3,-0.2 Q 32.3,40.55 31.9,39.3 L 31.25,37.05 34.7,36.9 35.05,36.95 37.9,36.8 37.95,36.7 38,36.65 37.95,36.55 H 37.9 l -0.55,-0.15 -0.4,-0.3 -2.6,-1.25 -0.85,-0.35 -1.45,-0.55 0.7,-0.8 M 52.2,16.95 49.45,17.3 48.7,17.6 q -2.15,1.25 -0.9,3.35 l 0.75,0.65 q 2.65,1.2 5.6,0.7 1.65,-0.3 2.65,-1.5 0.6,-0.7 0.4,-1.55 -0.4,-2.4 -2.9,-2.05 l -0.55,-0.05 -1.55,-0.2 m -22.75,25.3 q -0.45,0 -0.8,0.4 -0.25,0.25 -0.15,0.5 l 0.95,3.35 0.05,0.2 0.2,1.05 q 0.2,1.5 1.15,2.55 h 0.2 l 0.1,-0.05 V 50.2 50.05 l 0.05,-0.1 v -0.1 L 31.25,49.8 V 48.25 L 30.85,45.55 30.8,44 q -0.1,-1.4 -1.35,-1.75 m -15.1,-17.3 q -0.15,0 -0.25,0.15 l -0.05,0.15 0.1,0.2 0.65,1.25 0.8,1.55 0.75,0.7 Q 18,29.7 18.15,28 L 17.95,27.5 14.5,25 14.35,24.95 m 4.5,-5.85 H 18.8 l -0.1,0.05 h -0.05 q -0.5,0.35 -0.5,0.95 l 0.25,2.05 -0.05,4.05 q 0,0.7 0.35,1.25 0.95,1.4 2.15,0.25 L 21,27.3 q -0.2,-2.55 -1,-5.1 v -0.5 l -0.15,-0.3 -0.1,-0.75 Q 19.7,19.8 19.1,19.2 L 19,19.15 18.85,19.1 m -7.3,1.15 q -1.45,0.3 -2.35,1.55 -0.65,0.9 0.15,1.55 l 0.95,0.05 q 1.3,-0.75 1.9,-1.95 v 0.75 l -0.1,1.9 -0.1,0.25 v 0.6 Q 11.1,24.2 9.55,24.05 L 8.45,24.3 8.5,21.75 V 21 20.4 L 8.55,20.25 8.6,20.15 8.7,20 8.75,19.95 10.5,19.45 q 0.5,0.35 1.25,0.5 l 0.15,0.3 0.05,0.15 -0.4,-0.15 M 5.35,16.5 4.5,16.7 q -0.9,0.3 -1.1,1 1.25,1.05 2.65,-0.15 l 0.15,-0.2 v -0.1 L 6.25,17.05 6.05,16.8 Q 5.75,16.5 5.35,16.5 M 2.5,8.3 2.25,8.35 Q 0.75,8.4 0.8,9.65 L 0.85,9.7 Q 2,10.25 2.8,9.05 L 2.85,8.9 2.9,8.8 V 8.75 8.6 L 2.8,8.5 2.75,8.4 2.65,8.35 2.5,8.3"
         fill="#999999"
         fill-rule="evenodd"
         stroke="none"
         id="path4" />
      <path
         d="m 52.2,16.95 1.55,0.2 0.55,0.05 q 2.5,-0.35 2.9,2.05 0.2,0.85 -0.4,1.55 -1,1.2 -2.65,1.5 -2.95,0.5 -5.6,-0.7 L 47.8,20.95 q -1.25,-2.1 0.9,-3.35 l 0.75,-0.3 2.75,-0.35 m -19.45,16.2 -0.7,0.8 1.45,0.55 0.85,0.35 2.6,1.25 0.4,0.3 0.55,0.15 h 0.05 l 0.05,0.1 -0.05,0.05 -0.05,0.1 -2.85,0.15 -0.35,-0.05 -3.45,0.15 0.65,2.25 q 0.4,1.25 0.05,2.5 l -0.3,0.2 q -1.1,0 -1.55,-1 l -1.85,-3.75 -0.7,0.6 q 0.7,0.55 0.45,1.75 l -0.35,1.35 -0.1,0.25 q -0.25,0.85 -0.2,1.75 l -0.45,1 V 44 h -0.1 l -0.15,-0.05 q -0.6,-1.1 -0.45,-2.45 0.1,-1.05 -0.15,-2.05 L 26,38.95 24.2,39.5 q -0.4,0.05 -0.65,-0.25 L 23.3,38.9 22.5,38.8 q -0.4,-0.05 -0.45,-0.45 -0.15,-1.5 1.1,-2.6 1.1,-0.95 2.3,-1.75 L 25.35,33.85 24.6,32.9 Q 23.55,31.7 23,30.4 l 0.05,-0.15 0.2,-0.15 0.1,-0.05 H 23.5 V 30 l 3.5,1.3 0.2,-0.85 0.3,-3.1 0.1,-0.4 -0.45,0.2 -7.05,3.4 H 20 L 19.95,30.4 v -0.15 l 0.1,-0.05 0.1,-0.05 0.3,-0.25 v -0.1 l 0.05,-0.05 q 0.6,-0.65 1.35,-1.15 l 0.4,-0.2 7.4,-4.85 6,-4.45 q 2.2,-1.6 4.65,-2.45 l 0.65,0.15 0.25,0.1 v 0.05 l 0.05,0.1 0.05,0.05 q -0.25,1.65 -1.9,2.55 -2.65,1.4 -5.2,3.15 l -5.7,3.6 q 0.75,0.6 0.85,1.75 l 0.1,0.7 0.7,2.4 L 32,30.8 q 1.35,0.2 1.2,1.2 0.2,0.45 -0.45,1.15 m 2.2,4.9 q 1.4,0.6 2.5,1.8 l 1.6,1.7 1.35,1.4 0.2,0.15 0.1,0.1 0.05,0.05 v 0.15 l -0.05,0.1 -0.05,0.05 -0.05,0.05 -0.05,0.05 q -2.4,-0.8 -4.5,-2.3 l -0.3,-0.3 Q 34.1,40.4 34.1,38.85 34.05,38.4 34.5,38.2 34.75,38.05 34.95,38.05 M 25.9,20.7 l 0.25,0.05 0.15,0.1 0.1,0.1 v 0.15 l 0.05,0.05 -0.45,0.8 -0.35,0.35 -0.05,0.2 -0.2,0.3 -2.3,4.05 q -0.2,0.3 -0.5,0.25 -1.15,-0.2 -0.7,-1.2 l 0.85,-1.4 2.95,-3.75 0.1,-0.05 h 0.1 m 11.55,1.35 q 1.85,0.35 1.05,2 L 37.7,24.9 Q 35.6,26.15 33.3,27 32,27.5 30.85,28.2 L 30.55,28.15 30.4,28.05 30.35,28 30.3,27.95 v -0.1 -0.1 -0.05 L 33.65,24.5 34,24.2 q 1.5,-1.45 3.45,-2.15 M 0,14.75 0.35,13.55 q 0.7,-1.55 1.9,-2.5 0.1,-0.8 0.7,-1.55 L 3.95,8.35 3.3,7.5 2.45,6.75 Q 1.35,6.6 0.75,5.65 0.35,5 0.45,4.25 0,3.25 0.3,2.2 0.8,0.4 2.65,0.3 3.6,0.5 4.45,0.85 L 4.65,0.8 q 3.6,0.55 4.55,4.1 l 0.25,1.25 q 0.2,1.3 -0.1,2.3 0.7,0.65 0.8,1.8 1.95,0.35 3.1,2.2 0.6,0.95 0.65,2.1 0.1,1.35 -0.55,2.45 1.1,1 1.35,2.85 0.25,1.6 -0.3,3.15 l -0.45,1.5 q -0.3,0.95 -1.15,1.45 l 0.4,1.65 q 0.25,3.35 -2.9,4.5 L 6.95,31.9 Q 5.9,31.35 5.5,30.25 4.95,28.6 5.65,27 L 6.2,26.05 5.9,24.85 4.25,25 q -3.1,-0.25 -3.1,-3.25 -0.05,-0.55 0.3,-1 0.5,-0.7 1.3,-0.75 l 0.8,0.3 0.05,-0.05 0.75,-0.05 0.85,0.5 0.75,-0.5 0.1,-0.7 q 0.2,-1 1,-1.65 L 7.2,17.75 7.1,17 7.15,16.3 7.1,16.2 7.05,16.05 6.9,15.8 6.8,15.65 4.3,15.8 3.15,17.1 3.2,18.15 q -0.1,0.95 -0.75,1.6 -0.85,0.9 -1.65,-0.1 -0.65,-0.9 -0.4,-2 l 0.1,-0.3 V 17 Q 0.1,16.55 0,15.8 V 14.75 M 2.5,8.3 2.65,8.35 2.75,8.4 2.8,8.5 2.9,8.6 V 8.75 8.8 L 2.85,8.9 2.8,9.05 Q 2,10.25 0.85,9.7 L 0.8,9.65 Q 0.75,8.4 2.25,8.35 L 2.5,8.3 m 2.85,8.2 q 0.4,0 0.7,0.3 l 0.2,0.25 -0.05,0.2 v 0.1 l -0.15,0.2 q -1.4,1.2 -2.65,0.15 0.2,-0.7 1.1,-1 l 0.85,-0.2 m 6.2,3.75 0.4,0.15 -0.05,-0.15 -0.15,-0.3 Q 11,19.8 10.5,19.45 L 8.75,19.95 8.7,20 8.6,20.15 8.55,20.25 8.5,20.4 v 0.6 0.75 l -0.05,2.55 1.1,-0.25 q 1.55,0.15 2.45,0.9 v -0.6 l 0.1,-0.25 0.1,-1.9 v -0.75 q -0.6,1.2 -1.9,1.95 L 9.35,23.35 Q 8.55,22.7 9.2,21.8 q 0.9,-1.25 2.35,-1.55 m 7.3,-1.15 0.15,0.05 0.1,0.05 q 0.6,0.6 0.65,1.45 l 0.1,0.75 0.15,0.3 v 0.5 q 0.8,2.55 1,5.1 l -0.15,0.4 Q 19.65,28.85 18.7,27.45 18.35,26.9 18.35,26.2 L 18.4,22.15 18.15,20.1 q 0,-0.6 0.5,-0.95 h 0.05 l 0.1,-0.05 h 0.05 m -4.5,5.85 0.15,0.05 3.45,2.5 0.2,0.5 q -0.15,1.7 -1.8,0.95 l -0.75,-0.7 -0.8,-1.55 -0.65,-1.25 -0.1,-0.2 0.05,-0.15 q 0.1,-0.15 0.25,-0.15 m 15.1,17.3 Q 30.7,42.6 30.8,44 l 0.05,1.55 0.4,2.7 v 1.55 l -0.05,0.05 v 0.1 l -0.05,0.1 v 0.15 0.05 l -0.1,0.05 h -0.2 Q 29.9,49.25 29.7,47.75 L 29.5,46.7 29.45,46.5 28.5,43.15 q -0.1,-0.25 0.15,-0.5 0.35,-0.4 0.8,-0.4"
         fill="#ffffff"
         fill-rule="evenodd"
         stroke="none"
         id="path5" />
      <path
         d="m 51.4,-0.95 q 1.65,0.55 1.2,2.3 L 51.9,3 Q 51.8,3.25 51.5,3.1 50.8,2.7 50.6,1.8 L 50.55,1.3 Q 50,0.5 50.45,-0.35 50.8,-0.9 51.4,-0.95 m 0.1,4.85 q 1.6,0.55 0.5,1.7 l -0.9,0.1 q -1.05,-0.8 0,-1.6 l 0.4,-0.2 m 1.65,5.2 q -1.4,0.15 -1.5,1.55 -0.1,1.4 1.3,1.6 1.15,0.25 1.55,-0.9 0.65,-1.8 -1.35,-2.25 M 47.85,10 Q 47.2,9.55 46.8,8.6 46.6,8.05 46.75,7.5 47.15,5.95 48.65,5.75 50.4,6.15 50.8,7.4 L 51,7.35 h 1.2 q 0.4,-1.1 1.75,-1.3 2.45,0 2.3,2.3 -0.05,0.95 -0.95,1.4 l -0.1,0.1 q 0.8,2.4 -1,4.05 l 0.7,0.65 q 1.45,-1.7 3.25,-2.9 l 0.25,0.05 0.1,0.05 0.1,0.15 0.1,0.1 v 0.15 0.1 0.05 q -1.8,2.05 -2.95,4.55 0.2,2.35 -2.05,3.65 L 52.1,21 q -2.95,0.1 -4,-2.55 -0.5,-1.25 0.2,-2.45 0.5,-0.8 1.15,-1.4 -1.6,-0.75 -1.7,-2.65 0.3,0.5 1.2,0.55 1.1,0.1 1.4,-0.95 0.55,-1.8 -1.4,-2.05 -0.75,0.1 -1.1,0.5 m -7.5,5.8 q 1.85,-0.5 2,1.2 0.05,0.75 -0.5,1.15 -1.25,0.9 -2.75,1.25 -1.05,0.2 -1.3,-0.75 -0.35,-1.7 1.35,-2.45 l 1.2,-0.4 m -0.6,5.2 q 1.8,0.4 1.15,2.05 -0.25,0.7 -0.9,1.05 l -0.85,0.6 q -1.75,1.6 -3.75,0.7 l -0.5,-0.55 q -0.55,-2.2 1.65,-2.95 l 2.6,-0.8 0.6,-0.1 M 1.25,5.9 q 2.2,0.2 3.3,1.95 0.2,0.3 0.05,0.65 -0.85,2.3 -2.5,4.05 L 1.55,12.6 Q 0.05,11.9 0.7,10.6 L 1,10.5 H 1.6 L 2,9.75 2.55,8.9 2.7,8.55 0.45,7.45 0.25,7.05 q -0.05,-1 1,-1.15 M 4.2,15.85 3.8,17.9 3.7,18.6 5.25,19.1 5.3,18.95 5.35,18.85 V 18.4 l 0.1,-0.2 0.3,-1.4 0.1,-0.45 Q 5.1,16 4.2,15.85 M 3.9,13.9 Q 6.05,13.95 7.45,15.35 7.7,15.6 7.6,15.9 7.05,18.1 6.05,20.15 5.95,21.8 4.2,21.75 2.9,21.75 2,21 L 1.45,20.1 Q 1.3,19.6 1.6,19.2 L 1.8,17.9 2.55,15.05 2.6,14.65 Q 2.9,14.1 3.5,14 l 0.4,-0.1 m 6.2,4.95 q 2.1,-0.45 2.95,1.2 l 0.2,0.75 -0.2,1.25 0.05,0.25 -0.1,1.1 -0.2,1.05 Q 12.6,26.2 10.75,26.4 9.4,26.55 8.45,25.65 7.9,25.1 7.9,24.3 7.85,22 8.25,19.8 L 8.5,19.5 q 0.75,-0.45 1.6,-0.65 m 0.95,1.8 -0.9,0.05 -0.3,0.2 v 1.2 1.6 l 1.75,0.05 V 22.4 20.8 L 11.05,20.65 M 17.8,57.3 q -0.75,0.75 -1.7,0.75 L 15.75,57.9 0.6,58.4 -0.15,58.1 q -1.3,-1.4 -1.1,-3.35 l 0.1,-1.3 Q -1.2,50 -1.4,46.6 l -0.05,-5.2 0.35,-3.65 0.45,-2 Q -0.7,35.1 -0.35,34.4 0.25,33.1 1.7,32.7 l 3.75,-1.4 q 3,-1.4 6.05,-2.4 1.85,0.45 3.15,1.85 1.65,-0.95 3.4,-1.75 l 0.35,-0.05 q 2.5,0.4 2.6,2.9 0.1,1.05 -0.7,1.65 l -0.7,0.65 -1.6,1 0.3,0.45 q 3.15,-2.05 6.5,-3.75 0.5,-0.25 0.95,-0.25 3.55,0.8 4.25,4.4 0.45,2.25 -1.05,3.85 L 28.2,40.6 24,44.1 25.25,45.7 Q 27.2,48 25.8,50.5 L 25,51.55 q -1.65,1.85 -3.8,3.15 -1.1,1.35 -2.5,2.35 l -0.85,0.2 -0.05,0.05 M 35.35,27.4 q 2.45,0.15 2.2,2.45 l -0.35,1 -1.25,1.25 -0.95,0.7 q -1.35,1.2 -3,1.7 h -0.55 q -2.3,-0.75 -1.85,-3.1 0.2,-1.3 1.35,-2 1.55,-1 3.25,-1.65 0.6,-0.25 1.15,-0.35"
         fill="#000000"
         fill-rule="evenodd"
         stroke="none"
         id="path6" />
      <path
         d="m 53.15,9.1 q 2,0.45 1.35,2.25 -0.4,1.15 -1.55,0.9 -1.4,-0.2 -1.3,-1.6 0.1,-1.4 1.5,-1.55 M 47.75,11.95 47.5,11 q 0,-0.65 0.35,-1 0.35,-0.4 1.1,-0.5 1.95,0.25 1.4,2.05 -0.3,1.05 -1.4,0.95 -0.9,-0.05 -1.2,-0.55"
         fill="#ffffff"
         fill-rule="evenodd"
         stroke="none"
         id="path7" />
    </g>
    <g
       id="shape2"
       transform="translate(1.5,1.5)">
      <path
         d="M 0,23.8 V 0 H 64.1 V 23.8 57.55 H 0 Z"
         fill="none"
         stroke="#000000"
         stroke-linecap="round"
         stroke-linejoin="round"
         stroke-width="3"
         id="path8" />
    </g>
  </defs>
</svg>
